<svg width="100pt" height="100pt" viewBox="0 0 100 100" xmlns="http://www.w3.org/2000/svg"><path d="M93.801 50.141v-.02a6.777 6.777 0 0 0-.36-.851l-6.468-11.391c-.012-.012-.012-.02-.02-.031l-2.03-3.578a4.119 4.119 0 0 0-3.571-2.09H63.809c-.5 0-.969.12-1.39.308v-5.922c0-1.98-1.56-3.578-3.5-3.578h-9.141l-39.95.532C7.72 23.55 6 25.27 6 27.36V65.8c0 1.68 1.38 3.04 3.079 3.04h7.011c.48 4.578 4.25 8.171 8.828 8.171s8.352-3.59 8.82-8.172h31.708c.468 4.579 4.238 8.172 8.82 8.172 4.578 0 8.351-3.59 8.82-8.172h6.36c2.511 0 4.558-2.09 4.558-4.66l.008-12.78a4.586 4.586 0 0 0-.211-1.259zm-68.879 24.93c-3.809 0-6.922-3.23-6.922-7.2s3.11-7.198 6.922-7.198c3.809 0 6.91 3.23 6.91 7.199-.004 3.969-3.101 7.199-6.91 7.199zm35.539-8.172H33.738c-.469-4.578-4.238-8.172-8.82-8.172-4.578 0-8.36 3.59-8.828 8.172H9.078c-.621 0-1.121-.5-1.121-1.11l.004-38.43c0-1.038.851-1.89 1.91-1.91l39.922-.519h9.129c.851 0 1.539.738 1.539 1.648zm25.02-27.68l5.871 10.328h-17.3l-2.49-10.328zM74.27 75.071c-3.809 0-6.91-3.23-6.91-7.2s3.101-7.198 6.91-7.198 6.922 3.23 6.922 7.199-3.113 7.2-6.922 7.2zm17.77-12.91h-3.602a.967.967 0 0 1-.98-.96v-.442c0-.531.441-.961.98-.961h3.602zm0-4.3h-3.602c-1.609 0-2.93 1.3-2.93 2.89v.441c0 1.602 1.321 2.89 2.93 2.89h3.602v.09c0 1.5-1.16 2.731-2.602 2.731H83.08c-.469-4.578-4.238-8.172-8.82-8.172-4.578 0-8.352 3.59-8.82 8.172h-3.032l.004-31.352c.031-.789.64-1.43 1.39-1.43h17.54c.761 0 1.48.422 1.87 1.11l1.173 2.059H71.322a1.754 1.754 0 0 0-1.7 2.19l2.57 10.649a1.758 1.758 0 0 0 1.7 1.352h18.16v6.378z"/><path d="M74.27 63.328c-2.441 0-4.43 2.031-4.43 4.54 0 2.5 1.98 4.538 4.43 4.538 2.441 0 4.43-2.039 4.43-4.539 0-2.508-1.989-4.539-4.43-4.539zm0 7.152c-1.371 0-2.469-1.18-2.469-2.61 0-1.44 1.102-2.608 2.469-2.608 1.371 0 2.469 1.18 2.469 2.609 0 1.43-1.098 2.61-2.469 2.61zm.992-14.929h1.98c.54 0 .981-.422.981-.96a.972.972 0 0 0-.98-.962h-1.981c-.54 0-.98.43-.98.961 0 .54.437.961.98.961zm-50.34 7.777c-2.441 0-4.441 2.031-4.441 4.54 0 2.5 1.988 4.538 4.441 4.538 2.45 0 4.43-2.039 4.43-4.539 0-2.508-1.992-4.539-4.43-4.539zm0 7.152c-1.371 0-2.48-1.18-2.48-2.61 0-1.44 1.109-2.608 2.48-2.608 1.36 0 2.469 1.18 2.469 2.609 0 1.43-1.11 2.61-2.469 2.61z"/></svg>